<svg width="24" height="24" viewBox="0 0 24 24" fill="none" xmlns="http://www.w3.org/2000/svg">
<path d="M12 22C12.218 22 12.432 21.9983 12.642 21.995L13.258 21.978L13.557 21.965L14.136 21.931L14.689 21.885C19.474 21.421 21.421 19.474 21.885 14.689L21.931 14.136L21.965 13.557C21.9703 13.459 21.9747 13.3593 21.978 13.258L21.995 12.642L21.999 12.324L22 12C22 11.782 21.9983 11.568 21.995 11.358L21.978 10.742L21.965 10.443L21.931 9.864L21.885 9.311C21.421 4.526 19.474 2.579 14.689 2.115L14.136 2.069L13.557 2.035C13.459 2.02967 13.3593 2.02533 13.258 2.022L12.642 2.005L12 2L11.358 2.005L10.742 2.022L10.443 2.035L9.864 2.069L9.311 2.115C4.526 2.579 2.579 4.526 2.115 9.311L2.069 9.864L2.035 10.443C2.02967 10.541 2.02533 10.6407 2.022 10.742L2.005 11.358L2 12L2.005 12.642L2.022 13.258L2.035 13.557L2.069 14.136L2.115 14.689C2.579 19.474 4.526 21.421 9.311 21.885L9.864 21.931L10.443 21.965L10.742 21.978L11.358 21.995L11.676 21.999L12 22ZM12.148 16.989L12.09 16.996L12 17L11.925 16.997L11.799 16.98L11.688 16.95L11.577 16.906L11.479 16.854L11.375 16.78L11.293 16.707L7.293 12.707C7.11365 12.527 7.00953 12.2856 7.00177 12.0316C6.99402 11.7777 7.08322 11.5303 7.25125 11.3397C7.41928 11.1492 7.65355 11.0297 7.90648 11.0056C8.1594 10.9815 8.41201 11.0546 8.613 11.21L8.707 11.293L11 13.585V8C11.0003 7.74512 11.0979 7.49997 11.2728 7.31463C11.4478 7.1293 11.687 7.01777 11.9414 7.00283C12.1958 6.98789 12.4464 7.07067 12.6418 7.23426C12.8373 7.39785 12.9629 7.6299 12.993 7.883L13 8V13.585L15.293 11.293C15.4652 11.1208 15.6943 11.0174 15.9373 11.0021C16.1803 10.9868 16.4206 11.0607 16.613 11.21L16.707 11.293C16.8792 11.4652 16.9826 11.6943 16.9979 11.9373C17.0132 12.1803 16.9393 12.4206 16.79 12.613L16.707 12.707L12.707 16.707C12.6721 16.7421 12.6347 16.7745 12.595 16.804L12.485 16.875L12.371 16.929L12.266 16.964L12.148 16.989Z" fill="#C7395F"/>
</svg>
