<svg width="100" height="100" viewBox="0 0 100 100" fill="none" xmlns="http://www.w3.org/2000/svg">
<path d="M49.9999 12.5C56.8916 12.5 62.4999 18.1083 62.4999 25V44.85C67.2624 40.5833 75.1041 40.7708 79.6707 45.3292C82.0141 47.6733 83.3306 50.8521 83.3306 54.1667C83.3306 57.4812 82.0141 60.6601 79.6707 63.0042L49.9999 92.675L20.3291 63.0042C17.9857 60.6601 16.6692 57.4812 16.6692 54.1667C16.6692 50.8521 17.9857 47.6733 20.3291 45.3292C24.8874 40.7667 32.7416 40.5792 37.4999 44.85V25C37.4999 18.1083 43.1082 12.5 49.9999 12.5ZM54.1666 64.9417L54.1666 25C54.1186 23.9272 53.6586 22.9142 52.8825 22.172C52.1063 21.4298 51.0738 21.0155 49.9999 21.0155C48.926 21.0155 47.8935 21.4298 47.1173 22.172C46.3412 22.9142 45.8812 23.9272 45.8332 25L45.8332 64.9417L32.1124 51.2208C31.3192 50.4624 30.264 50.0391 29.1666 50.0391C28.0691 50.0391 27.0139 50.4624 26.2207 51.2208C25.4396 52.0022 25.0008 53.0618 25.0008 54.1667C25.0008 55.2715 25.4396 56.3311 26.2207 57.1125L49.9999 80.8917L73.7791 57.1125C74.5602 56.3311 74.999 55.2715 74.999 54.1667C74.999 53.0618 74.5602 52.0022 73.7791 51.2208C72.9859 50.4624 71.9307 50.0391 70.8332 50.0391C69.7358 50.0391 68.6806 50.4624 67.8874 51.2208L54.1666 64.9417Z" fill="#C7395F" fill-opacity="0.7"/>
</svg>
