<svg width="50" height="50" viewBox="0 0 50 50" fill="none" xmlns="http://www.w3.org/2000/svg">
<path d="M6.45703 2.33398C4.43945 5.89648 4.6377 11.1523 6.92285 15.8301C9.18262 20.459 13.4082 24.4531 19.2773 25.7617C19.3555 25.3711 19.4434 24.9805 19.5313 24.5898C19.541 21.5625 18.7305 17.0508 16.9434 12.9199C14.7754 7.9082 11.2695 3.50195 6.45703 2.33398ZM7.97754 5.27832C13.0859 6.82129 14.1797 14.2188 13.252 16.6113C7.00684 14.873 5.11035 8.14062 7.97754 5.27832ZM29.1406 12.6074C29.0918 12.666 28.9258 12.8516 28.8086 13.2812C28.6719 13.7793 28.6133 14.5117 28.7109 15.4297C28.9063 17.3926 29.209 18.8965 29.6875 20.3516C29.7754 19.1113 29.9707 17.9297 30.3125 16.7188C30.2441 15.8984 30.0977 15.0293 29.8242 14.043V14.0332C29.6094 13.2324 29.3066 12.7734 29.1602 12.627L29.1406 12.6074ZM34.9316 12.6465C34.9023 12.6465 34.873 12.6465 34.8437 12.6563C34.375 12.7051 33.5547 13.1836 32.9492 14.5996V14.6094H32.9395C31.8066 17.2168 31.416 19.1797 31.416 21.7188C31.4258 21.748 31.4551 21.7871 31.4648 21.8066C33.3887 19.541 34.9414 18.2227 35.5957 14.7949C35.7422 13.9746 35.6543 13.4082 35.5078 13.0957C35.3613 12.7832 35.2148 12.6953 35.0098 12.6563C34.9805 12.6465 34.9609 12.6465 34.9316 12.6465ZM22.5391 14.1504L21.0547 15.0879C21.9336 16.4648 22.4023 17.9492 22.6367 19.4824C22.9688 19.3945 23.3105 19.3652 23.6426 19.3945C23.8477 19.4141 24.0527 19.4531 24.248 19.5117L24.4238 19.5703C24.1797 17.7441 23.6523 15.8887 22.5391 14.1504ZM39.209 14.9023C39.0625 14.9121 38.916 14.9609 38.75 15.0684C38.1836 15.4297 37.4609 16.25 36.7383 17.2266C36.123 18.8867 35.2441 20.0879 34.2871 21.2207C33.8281 22.0898 33.5352 22.7246 33.4375 22.9297C33.4863 23.291 33.5742 23.5645 33.7012 23.7793C33.8184 23.7109 33.9453 23.6523 34.082 23.6035H34.0918L34.1016 23.5938C35.2539 23.2227 36.5918 22.4023 37.998 21.6797C39.1211 20.8203 40.2148 19.8926 40.8789 19.1309C41.5625 18.3496 41.416 17.0703 40.791 16.0645C40.4785 15.5664 40.0488 15.1855 39.6875 15.0195C39.5117 14.9414 39.3555 14.9023 39.209 14.9023ZM23.4082 21.1328C23.1934 21.1328 22.9785 21.1914 22.7637 21.3281C22.4316 21.543 22.0605 21.9727 21.8164 22.793C21.7871 22.9102 21.748 23.0176 21.7188 23.1348C22.0996 23.1641 22.4805 23.2129 22.9004 23.2812C23.5547 23.3789 24.1992 23.5156 24.7656 23.6719C24.7754 23.6328 24.7754 23.6035 24.7852 23.5645C25.0391 22.1484 24.375 21.3867 23.7305 21.1914C23.6523 21.1621 23.5742 21.1523 23.4961 21.1426C23.4668 21.1426 23.4375 21.1328 23.4082 21.1328ZM42.0703 22.168C41.9336 22.168 41.7969 22.168 41.6504 22.1875C41.0449 22.2461 40.3418 22.5 39.5801 22.8516C38.0664 23.5742 36.4063 24.6973 34.668 25.2734C34.6582 25.2734 34.3359 25.5859 34.209 25.9375C34.1406 26.123 34.1211 26.3086 34.1309 26.3965C34.1309 26.4355 34.1406 26.4453 34.1406 26.4551C36.2305 28.2031 39.3848 28.4863 41.6016 27.5195V27.5098C43.2031 26.8164 44.1406 25.8301 44.3945 25C44.6582 24.1797 44.4531 23.418 43.2129 22.5488C42.8418 22.2949 42.4805 22.1875 42.0703 22.168ZM34.668 25.2734V25.2637L34.6484 25.2734H34.668ZM30.2441 23.125C29.3457 23.7695 28.6816 24.8242 28.4766 26.123C28.2129 27.8418 28.8379 29.4531 29.9414 30.4102C30.0488 30.2441 30.1758 30.0977 30.3223 29.9609C30.5957 29.707 30.9668 29.502 31.4063 29.4824H31.5137C31.543 29.3066 31.5918 29.1211 31.6699 28.9355C31.8555 28.4668 32.2949 27.959 32.9102 27.7148C32.5586 27.3926 32.4121 26.9434 32.3828 26.5527C32.3438 26.1328 32.4121 25.7422 32.5391 25.3711C32.5586 25.3027 32.5879 25.2344 32.6172 25.1758C32.2363 24.7461 31.9336 24.209 31.7578 23.5645C31.3379 23.6328 30.9082 23.6035 30.5469 23.3691C30.4297 23.291 30.332 23.2129 30.2441 23.125ZM21.2598 24.9121C21.0742 25.7031 20.918 26.4941 20.791 27.2754L20.8105 27.2559C21.5625 27.9883 22.8125 28.1738 23.9551 28.0957C24.1211 27.207 24.2871 26.3086 24.4434 25.4004C23.9258 25.2637 23.2617 25.1172 22.6367 25.0195C22.1387 24.9414 21.6211 24.9219 21.2598 24.9121ZM16.4453 26.7676C14.7949 27.168 12.8613 27.9004 11.0449 28.9746C7.72754 30.9375 4.75879 33.9453 3.87695 37.9199C6.05859 39.2285 9.29688 38.8574 12.334 36.8555C15.1563 35 17.7051 31.7871 18.8672 27.4707C18.0273 27.2852 17.2266 27.0508 16.4453 26.7676ZM20.498 29.1895C20.3906 29.9609 20.3027 30.7227 20.2246 31.4941C21.1035 31.9922 22.2363 32.2461 23.0469 32.1582C23.2422 31.4062 23.4277 30.6445 23.5938 29.873C22.5879 29.8926 21.4746 29.7461 20.498 29.1895ZM35.3418 29.1992C34.7852 29.2578 34.2188 29.3164 33.6328 29.3359C33.3789 29.3457 33.3789 29.3945 33.3008 29.5996C33.2617 29.6973 33.2422 29.8242 33.2324 29.9023C33.2324 29.9316 33.2422 29.9609 33.252 29.9707C33.3887 30.2051 33.5254 30.4395 33.6523 30.6836C35.0977 31.8066 36.25 32.9883 37.2461 34.3164C37.832 34.4531 38.5449 34.4922 39.4434 34.3848C40.7324 34.2188 42.1777 33.3008 42.7148 32.3535C42.9785 31.875 43.0469 31.4551 42.9102 31.0059C42.7637 30.5566 42.373 30.0098 41.4648 29.4531C41.4648 29.4531 41.4551 29.4531 41.4551 29.4434C39.5313 30.0391 37.3242 29.9902 35.3418 29.1992ZM31.5039 31.2793C31.4258 31.3672 31.2793 31.6602 31.2695 31.9141C31.123 34.9316 31.6406 37.3438 33.0176 40.0977C33.3301 40.7324 33.5742 40.8008 33.9941 40.791C34.4141 40.7813 35.0391 40.5078 35.6055 40.0391C36.1719 39.5605 36.6602 38.9062 36.9141 38.3203C37.1582 37.7344 37.1387 37.2949 36.9824 37.041C35.5566 34.7461 34.0625 33.0566 31.5723 31.3281L31.5332 31.3086L31.5039 31.2793ZM11.5332 31.709C11.7578 31.709 11.9531 31.7285 12.1191 31.7773C11.6602 36.0645 8.32422 37.9297 6.64355 36.2891C7.02539 33.2129 9.94141 31.7578 11.5332 31.709ZM29.0332 31.9043C28.2324 34.0234 27.4414 35.9766 27.8516 38.0078C28.0273 38.8574 28.2715 39.3555 28.4668 39.5898C28.6621 39.8145 28.7207 39.8047 28.7891 39.7949C28.9258 39.7852 29.4336 39.4043 29.5801 38.7305C29.7852 37.7734 29.8145 36.8164 29.7461 35.8594C29.6484 35.3223 29.5801 34.7852 29.541 34.2383C29.4141 33.4863 29.2578 32.7246 29.1016 31.9531C29.082 31.9336 29.0625 31.9141 29.0332 31.9043ZM20.0391 33.3789C20.0195 33.5449 20.0098 33.7207 19.9902 33.8965C19.9414 35.2148 20.1172 36.0547 20.3027 36.4551C20.4883 36.8652 20.5371 36.8164 20.625 36.8164C20.7227 36.8164 21.0254 36.709 21.3477 36.3965C21.6602 36.0938 21.9629 35.6152 22.1484 35.1074V35.0977C22.2852 34.7168 22.4121 34.3262 22.5391 33.9453C21.6992 33.9258 20.8398 33.7305 20.0391 33.3789ZM42.8223 34.834C42.3535 35.1953 41.8359 35.4785 41.2891 35.7031C44.4434 39.8242 45.7422 44.6484 45.9863 48.3301L47.7441 48.2129C47.4805 44.2871 46.0938 39.209 42.8223 34.834Z" fill="#DED4E8"/>
</svg>
