<svg width="50" height="50" viewBox="0 0 50 50" fill="none" xmlns="http://www.w3.org/2000/svg">
<path d="M14.3074 11.2412C15.242 11.7585 16.1205 12.5013 16.8501 13.329C17.908 14.5292 19.6421 17.741 18.4602 18.8184C17.9985 17.461 16.3994 15.476 15.5313 14.4911C14.6632 13.5063 13.4241 12.6454 10.3811 11.7006C7.33815 10.7559 3.62838 13.6443 2.90846 16.7304C2.62389 17.9506 2.95827 19.548 3.73708 21.2544C4.51588 22.9609 5.71051 24.7521 6.95817 26.3636C7.25844 26.7511 7.56479 27.1338 7.87712 27.5117C9.73092 27.9292 11.5337 29.0183 13.3272 30.1122C15.3743 31.361 17.421 32.6449 19.2976 33.232C19.8333 29.682 21.949 26.4644 25.3019 23.6644L26.3923 22.7537L26.7205 24.1361C27.4275 27.1153 27.8289 30.4968 26.5846 33.8904C30.5116 33.5808 35.392 33.5749 39.4461 34.9372C40.9158 33.6371 41.9158 32.3994 41.1316 30.6638C36.1111 31.9148 31.6965 28.5434 30.3627 26.4558C33.8642 28.6206 36.1117 29.8797 39.7795 29.1402C42.6488 28.4137 45.314 28.2203 46.2189 25.294C47.8323 20.0272 47.6283 13.0203 44.1664 9.05824C42.4439 7.08695 40.2675 5.55999 38.0336 5.05267C35.7994 4.54525 33.5029 4.96605 31.5313 6.62445C29.5598 8.28285 28.6059 9.88441 28.2454 11.316C27.8847 12.7476 29.0486 15.7277 29.226 16.4794C27.3666 14.9517 26.0549 12.8161 26.541 10.8867C26.9773 9.15404 28.09 7.50814 29.5595 6.22376C28.8777 4.81458 27.6149 3.95013 26.1696 3.44515C20.1534 1.80765 13.0378 4.01927 14.3074 11.2412ZM25.3157 26.01C22.5935 28.6005 21.1055 31.385 20.9228 34.383L20.8624 35.3754L19.8848 35.1938C17.2428 34.7026 14.7639 33.0477 12.4119 31.613C10.822 30.6433 9.30231 29.8057 7.94733 29.3847C8.99176 30.9274 10.1592 32.6372 11.668 34.1747C13.7374 36.2836 16.225 37.8462 19.4647 37.6713L20.8626 37.5958C19.5295 40.6672 18.6228 44.0579 18.6339 46.7778L20.1382 47.0668C20.8032 43.5405 21.4471 41.0017 23.0583 38.5794C28.1625 39.3034 33.5329 38.1288 37.4593 36.2143C33.5632 35.279 28.8408 35.4086 25.2787 35.7709L23.6759 35.9337L24.4064 34.4979C25.8517 31.6569 25.8248 28.7888 25.3156 26.01H25.3157Z" fill="#DED4E8"/>
</svg>
