<svg width="50" height="50" viewBox="0 0 50 50" fill="none" xmlns="http://www.w3.org/2000/svg">
<path d="M26.875 2.62207C25.5176 8.2793 24.2871 13.9258 23.5449 19.541C23.916 19.4531 24.2969 19.4141 24.6973 19.4141C25.3613 19.4141 26.0059 19.5312 26.6113 19.7559C27.0313 14.1797 27.6758 8.5459 29.1016 2.83691L26.875 2.62207ZM21.0449 3.46484L17.5879 4.27832C17.9297 5.87793 18.3398 7.47363 18.8086 9.06738L22.5684 14.248C22.7246 13.3301 22.9004 12.4219 23.0762 11.5039C22.2949 8.86035 21.5723 6.18555 21.0449 3.46484ZM33.7891 4.37109C31.9434 6.78711 30.4883 9.31348 29.1797 11.8945C28.9844 13.3594 28.8184 14.8145 28.6719 16.2891C29.3262 15.7129 29.9707 15.1367 30.6055 14.5605C31.875 11.4355 33.4277 8.31836 35.8105 5.27148L33.7891 4.37109ZM14.3652 5.9707L12.5391 7.4375L21.25 20.6543C21.377 20.5469 21.5039 20.4492 21.6406 20.3418C21.7969 19.1309 21.9629 17.9199 22.1484 16.709L14.3652 5.9707ZM39.7363 8.18066C36.25 11.875 32.4121 15.3809 28.4473 18.8281L28.3008 20.7812C28.7207 21.1523 29.0918 21.5918 29.3848 22.0801C33.6328 18.0762 37.7832 14.1016 41.2305 9.98047L39.7363 8.18066ZM9.44727 11.4453L7.40332 14.3555C9.3916 16.0352 11.709 17.5195 14.1797 18.9258C15.7324 19.4043 17.2852 19.8437 18.8477 20.2539L16.2891 16.3574C13.8281 14.9023 11.4746 13.3398 9.44727 11.4453ZM43.5254 12.8418L36.3477 17.8613C35.8008 18.418 35.2344 18.9551 34.6777 19.5117C35.918 19.4824 37.1582 19.4238 38.4082 19.3262C40.4297 17.8125 42.5586 16.3379 44.9316 14.9414L43.5254 12.8418ZM5.33008 17.627L4.75879 19.8828C9.13184 21.8652 13.7109 23.4375 18.3496 24.9121C18.6523 24.6973 18.9551 24.4922 19.2578 24.2871C19.3359 23.584 19.541 22.9395 19.8535 22.334C14.9023 21.0742 10.0293 19.5996 5.33008 17.627ZM46.4746 19.8437C41.8457 20.957 37.2852 21.2988 32.8125 21.2891C31.9043 22.1582 30.9961 23.0176 30.0781 23.8867L30.1074 24.0332C30.2246 24.1113 30.332 24.1797 30.4492 24.248C36.1035 24.1602 41.582 23.4961 46.9727 22.5391L46.4746 19.8437ZM24.6973 21.1816C22.6367 21.1816 20.9863 22.8418 20.9863 24.9121C20.9863 26.9824 22.6367 28.6328 24.6973 28.6328C26.7578 28.6328 28.3984 26.9824 28.3984 24.9121C28.3984 22.8418 26.7578 21.1816 24.6973 21.1816ZM3.43555 22.207L3.02734 24.7754L8.84473 25.5762C10.1172 25.3613 11.377 25.1367 12.6172 24.8926C10.5469 24.1699 8.49219 23.4082 6.46777 22.5586L3.43555 22.207ZM38.9258 25.498C37.0898 25.6934 35.2441 25.8398 33.3887 25.9375C35.2539 26.9238 37.207 27.8418 39.2188 28.7305L45.8398 30.1758L46.1426 26.7773L38.9258 25.498ZM15.9961 26.0254C12.0605 26.8262 8.05273 27.5977 3.62793 28.1055L3.9209 31.4551L10.4883 30.0098C12.5195 28.7695 14.5215 27.4902 16.4746 26.1816C16.3184 26.1328 16.1523 26.0742 15.9961 26.0254ZM30.0586 26.0645C29.8047 27.1777 29.2285 28.1738 28.4277 28.9258C33.6133 31.7969 39.8145 33.7988 45.9082 35.9766L46.748 33.75C40.9766 31.4453 35.1758 29.1406 30.0586 26.0645ZM19.4043 26.3184C14.7461 29.5117 9.93164 32.5586 4.78027 35.2832L6.07227 37.2266C10.8105 35 15.3027 32.5586 19.5898 29.9219L20.5957 28.5449C20.0391 27.9102 19.6191 27.1582 19.4043 26.3184ZM26.5039 30.0879C25.9375 30.3027 25.3223 30.4102 24.6973 30.4102C24.248 30.4102 23.8184 30.3516 23.418 30.2539L25.5566 47.373L27.8516 46.9824L26.5039 30.0879ZM21.6113 30.1465L11.5527 44.0527L13.4863 45.3711L22.1484 34.4531L21.6113 30.1465ZM28.3496 30.9082L28.5254 33.125C30.8594 37.2949 33.291 41.4258 36.0449 45.4297L38.9062 43.877C35.9375 40.0488 33.3984 36.1426 30.9961 32.207C30.0977 31.7969 29.209 31.3672 28.3496 30.9082ZM33.8477 33.4473C34.1992 34.0234 34.5703 34.5898 34.9316 35.166C37.3438 37.4316 39.6875 39.8242 41.7871 42.5977L44.209 40.3809C42.7539 38.6816 41.2012 37.1289 39.5898 35.625C37.666 34.9414 35.7324 34.2187 33.8477 33.4473ZM16.9727 33.5547C14.6387 34.8926 12.2461 36.1719 9.78516 37.4023L7.1875 39.7949L9.61914 42.0312L14.0625 37.5586L16.9727 33.5547ZM22.4609 36.9336L19.8145 40.2637L18.7695 46.1816L21.3379 46.9336L22.7148 38.9453L22.4609 36.9336ZM28.8574 37.3145L28.9258 38.0957L31.875 46.7969L33.3008 46.2109L32.4121 43.1738C31.1719 41.2402 30 39.2773 28.8574 37.3145Z" fill="#DED4E8"/>
</svg>
