<svg width="50" height="50" viewBox="0 0 50 50" fill="none" xmlns="http://www.w3.org/2000/svg">
<path fill-rule="evenodd" clip-rule="evenodd" d="M22.0544 5.20835C22.7917 4.47095 23.7787 4.03683 24.8205 3.9917C25.8623 3.94657 26.8832 4.29372 27.6815 4.96459L27.9461 5.20835L31.3357 8.59584L31.6982 8.09168L32.3544 7.14793L32.7815 6.50626L33.2107 5.82084C33.8523 4.82084 34.6211 3.86876 35.9732 4.24168C36.3708 4.35172 36.7269 4.57738 36.9962 4.89005C37.2655 5.20272 37.4358 5.58831 37.4857 5.99793L37.5002 6.25001V18.75C37.5009 21.619 36.5147 24.4008 34.7072 26.6287C32.8996 28.8566 30.3807 30.3949 27.5732 30.9854L27.0836 31.0771V39.4104C29.0664 39.074 30.9391 38.2648 32.543 37.0515C34.147 35.8381 35.435 34.2562 36.2982 32.4396C36.4155 32.1924 36.5804 31.9708 36.7835 31.7873C36.9865 31.6038 37.2237 31.4622 37.4814 31.3704C37.7392 31.2786 38.0126 31.2385 38.2858 31.2523C38.5591 31.2661 38.827 31.3337 39.0742 31.4511C39.3214 31.5684 39.543 31.7333 39.7265 31.9364C39.9099 32.1394 40.0516 32.3766 40.1434 32.6343C40.2352 32.8921 40.2753 33.1655 40.2615 33.4387C40.2476 33.712 40.1801 33.9799 40.0627 34.2271C38.8632 36.7579 37.0452 38.9457 34.7767 40.5883C32.5082 42.2308 29.8624 43.2752 27.0836 43.625C27.0836 44.8042 26.2357 45.8354 25.0002 45.8354C23.7648 45.8354 22.9169 44.8042 22.9169 43.6229C20.1385 43.2736 17.493 42.2298 15.2245 40.588C12.956 38.9462 11.1378 36.7592 9.93774 34.2292C9.7007 33.73 9.67169 33.157 9.85707 32.6364C10.0425 32.1158 10.4271 31.6902 10.9263 31.4531C11.4255 31.2161 11.9984 31.1871 12.519 31.3725C13.0396 31.5579 13.4653 31.9425 13.7023 32.4417C14.5264 34.1765 15.7386 35.6985 17.245 36.89C18.7514 38.0814 20.5118 38.9103 22.3898 39.3125L22.9169 39.4125V31.0792C20.091 30.6015 17.5151 29.1674 15.6206 27.0169C13.7262 24.8664 12.6282 22.1302 12.5107 19.2667L12.5002 18.75V6.25001C12.5001 5.79431 12.6494 5.35114 12.9252 4.9884C13.201 4.62565 13.5882 4.36335 14.0273 4.24168C15.2711 3.89793 16.0252 4.68334 16.6398 5.59376L17.3586 6.72293L17.6461 7.14793L18.3023 8.09168L18.6648 8.59584L22.0544 5.20835ZM33.3336 12.8396C32.2669 14.1667 31.019 15.5563 29.719 16.6396C28.4794 17.6729 26.8169 18.75 25.0002 18.75C23.1836 18.75 21.5211 17.6729 20.2815 16.6396C19.1982 15.7375 18.1523 14.6229 17.2148 13.5083L16.6669 12.8417V18.75C16.6669 20.9241 17.5165 23.0121 19.0344 24.5685C20.5524 26.1249 22.6184 27.0265 24.7918 27.0809C26.9652 27.1352 29.0738 26.3381 30.6677 24.8595C32.2616 23.3809 33.2145 21.338 33.3232 19.1667L33.3336 18.75V12.8396ZM25.0002 8.15418L21.3044 11.85L22.1065 12.725C22.9398 13.6083 24.0044 14.5833 25.0002 14.5833C25.9961 14.5833 27.0627 13.6083 27.8961 12.725L28.6961 11.85L25.0002 8.15418Z" fill="#DED4E8"/>
</svg>
