<svg width="50" height="50" viewBox="0 0 50 50" fill="none" xmlns="http://www.w3.org/2000/svg">
<path d="M18.75 25C18.75 26.6576 19.4085 28.2473 20.5806 29.4194C21.7527 30.5915 23.3424 31.25 25 31.25C26.6576 31.25 28.2473 30.5915 29.4194 29.4194C30.5915 28.2473 31.25 26.6576 31.25 25C31.25 23.3424 30.5915 21.7527 29.4194 20.5806C28.2473 19.4085 26.6576 18.75 25 18.75C23.3424 18.75 21.7527 19.4085 20.5806 20.5806C19.4085 21.7527 18.75 23.3424 18.75 25Z" stroke="#DED4E8" stroke-width="2" stroke-linecap="round" stroke-linejoin="round"/>
<path d="M25 4.16669C26.6576 4.16669 28.2473 4.82517 29.4194 5.99727C30.5915 7.16937 31.25 8.75908 31.25 10.4167C31.25 11.5875 30.7111 13.4209 29.6334 15.9167L28.125 18.75L31.7917 14.8063C32.8306 13.5577 33.7125 12.7209 34.4375 12.2959C35.1438 11.8864 35.9242 11.6208 36.7336 11.5143C37.5431 11.4078 38.3656 11.4625 39.1538 11.6753C39.942 11.8882 40.6803 12.2549 41.3261 12.7543C41.9719 13.2538 42.5125 13.8761 42.9167 14.5854C43.7413 16.0202 43.9653 17.7227 43.5399 19.322C43.1145 20.9212 42.0743 22.2874 40.6459 23.1229C39.8667 23.5757 38.5847 23.9472 36.8 24.2375L31.25 25L36.25 25.6792C38.3334 25.9813 39.7875 26.3813 40.6459 26.8792C42.0743 27.7147 43.1145 29.081 43.5399 30.6802C43.9653 32.2794 43.7413 33.9819 42.9167 35.4167C42.5123 36.1258 41.9716 36.748 41.3257 37.2472C40.6798 37.7465 39.9415 38.113 39.1533 38.3256C38.3651 38.5382 37.5427 38.5928 36.7333 38.4861C35.924 38.3795 35.1437 38.1137 34.4375 37.7042C33.7125 37.2834 32.8306 36.4465 31.7917 35.1938L28.125 31.25L29.6334 34.0834C30.7097 36.582 31.2486 38.4153 31.25 39.5834C31.25 41.241 30.5915 42.8307 29.4194 44.0028C28.2473 45.1749 26.6576 45.8334 25 45.8334C23.3424 45.8334 21.7527 45.1749 20.5806 44.0028C19.4085 42.8307 18.75 41.241 18.75 39.5834C18.75 38.4125 19.2889 36.5792 20.3667 34.0834L21.875 31.25L18.2084 35.1938C17.1695 36.4438 16.2875 37.2806 15.5625 37.7042C14.8563 38.1137 14.0761 38.3795 13.2667 38.4861C12.4574 38.5928 11.6349 38.5382 10.8467 38.3256C10.0586 38.113 9.32026 37.7465 8.67436 37.2472C8.02847 36.748 7.48775 36.1258 7.08336 35.4167C6.2588 33.9819 6.03479 32.2794 6.46015 30.6802C6.88552 29.081 7.92578 27.7147 9.35419 26.8792C10.1334 26.4264 11.4153 26.0542 13.2 25.7625L18.75 25L13.75 24.3229C11.6667 24.0209 10.2125 23.6209 9.35419 23.1229C7.92521 22.2874 6.88455 20.9208 6.45916 19.3211C6.03376 17.7213 6.25814 16.0183 7.08336 14.5834C7.48757 13.874 8.02816 13.2517 8.67398 12.7522C9.3198 12.2528 10.0581 11.8861 10.8463 11.6732C11.6345 11.4604 12.457 11.4057 13.2664 11.5122C14.0759 11.6187 14.8562 11.8843 15.5625 12.2938C16.2875 12.716 17.1695 13.5528 18.2084 14.8042L21.875 18.75C19.7917 13.975 18.75 11.1972 18.75 10.4167C18.75 8.75908 19.4085 7.16937 20.5806 5.99727C21.7527 4.82517 23.3424 4.16669 25 4.16669Z" stroke="#DED4E8" stroke-width="2" stroke-linecap="round" stroke-linejoin="round"/>
</svg>
