<svg width="50" height="50" viewBox="0 0 50 50" fill="none" xmlns="http://www.w3.org/2000/svg">
<path d="M25 4.32501L25.9479 4.81043C29.6162 6.68808 32.7658 9.43988 35.1187 12.8229C37.0804 11.8933 39.1548 11.223 41.2896 10.8292L43.75 10.375V27.0833C43.75 32.0562 41.7746 36.8253 38.2583 40.3416C34.7419 43.8579 29.9728 45.8333 25 45.8333C20.0272 45.8333 15.2581 43.8579 11.7417 40.3416C8.22544 36.8253 6.25 32.0562 6.25 27.0833V10.375L8.70833 10.8292C10.8771 11.225 12.9479 11.9042 14.8813 12.8229C17.2342 9.43988 20.3838 6.68808 24.0521 4.81043L25 4.32501ZM18.4958 14.9292C21.0586 16.7263 23.2642 18.9849 25 21.5896C26.7353 18.9834 28.941 16.7233 31.5042 14.925C29.7741 12.5266 27.5578 10.5197 25 9.03543C22.4419 10.5203 20.2257 12.5279 18.4958 14.9271M22.7062 25.9021C20.8681 22.3316 18.0419 19.3651 14.5646 17.3563C13.2522 16.6004 11.8614 15.9898 10.4167 15.5354V27.0833C10.4167 33.9375 15.1458 39.6875 21.5188 41.25C21.0619 39.3393 20.8318 37.3813 20.8333 35.4167C20.8333 32.0479 21.5 28.8354 22.7083 25.9042M25.9458 41.6375C29.6423 41.3973 33.1088 39.7593 35.6416 37.0563C38.1745 34.3532 39.5837 30.7876 39.5833 27.0833V15.5354C35.353 16.8658 31.6576 19.5113 29.0347 23.087C26.4119 26.6627 24.9984 30.9821 25 35.4167C25 37.5875 25.3312 39.6771 25.9437 41.6396" fill="#DED4E8"/>
</svg>
