<svg width="50" height="50" viewBox="0 0 50 50" fill="none" xmlns="http://www.w3.org/2000/svg">
<path d="M25 2.34375C23.8477 2.34375 22.6074 3.33496 21.6211 5.30469C20.9277 6.70801 20.3906 8.5459 20.1465 10.625C20.5957 11.0156 21.0449 11.4258 21.4844 11.8652C22.5977 12.9688 23.5547 14.1406 24.3457 15.3125C24.5605 15.3027 24.7852 15.293 25 15.293C25.2344 15.293 25.4688 15.3027 25.7031 15.3223C26.4941 14.1406 27.4512 12.9785 28.5645 11.8652C28.9844 11.4453 29.4238 11.0352 29.8633 10.6641C29.6094 8.57031 29.082 6.7168 28.3789 5.30469C27.3926 3.33496 26.1523 2.34375 25 2.34375ZM11.0547 8.21484C10.1562 8.22754 9.45996 8.48437 9.00488 8.94141C8.19238 9.75391 8.0127 11.3281 8.71191 13.418C9.41016 15.5078 10.9473 17.959 13.1641 20.1758C13.9746 20.9863 14.8242 21.709 15.6641 22.334C16.5918 19.0918 19.1699 16.543 22.4219 15.6445C21.7969 14.7852 21.0645 13.9258 20.2441 13.1055C18.0273 10.8887 15.5762 9.34766 13.4863 8.64844C12.5684 8.34277 11.748 8.20508 11.0547 8.21484ZM38.9941 8.21484C38.3008 8.20508 37.4805 8.34473 36.5723 8.65234C34.4824 9.34961 32.0312 10.8887 29.8145 13.1055C28.9844 13.9355 28.252 14.7949 27.627 15.6543C30.8691 16.5625 33.4277 19.1211 34.3457 22.3633C35.2051 21.7285 36.0645 20.9961 36.8848 20.1758C39.1016 17.959 40.6348 15.5078 41.3379 13.418C42.041 11.3281 41.8555 9.75684 41.0449 8.94238C40.5859 8.48437 39.8926 8.22656 38.9941 8.21484ZM25 17.0508C20.5957 17.0508 17.0508 20.5957 17.0508 25C17.0508 29.4043 20.5957 32.9492 25 32.9492C29.4043 32.9492 32.9492 29.4043 32.9492 25C32.9492 20.5957 29.4043 17.0508 25 17.0508ZM10.7227 20.1367C8.60645 20.3809 6.73145 20.918 5.30469 21.6211C3.33496 22.6074 2.34375 23.8477 2.34375 25C2.34375 26.1523 3.33496 27.3926 5.30469 28.3789C6.71875 29.082 8.57422 29.6094 10.6641 29.8633C11.0645 29.4043 11.4844 28.9453 11.9238 28.5059C13.0176 27.4121 14.1602 26.4648 15.3125 25.6836C15.3027 25.459 15.293 25.2344 15.293 25C15.293 24.7461 15.3027 24.4922 15.3223 24.248C14.1602 23.4668 13.0176 22.5195 11.9238 21.4258C11.5039 21.0059 11.1035 20.5664 10.7227 20.1367ZM39.3164 20.1367C38.9355 20.5664 38.5449 20.9961 38.125 21.416C37.0117 22.5293 35.8496 23.4863 34.6777 24.2773C34.6973 24.5117 34.707 24.7559 34.707 25C34.707 25.2148 34.6973 25.4395 34.6875 25.6543C35.8496 26.4355 37.0117 27.3926 38.1152 28.4961C38.5645 28.9453 38.9844 29.3945 39.375 29.8535C41.4551 29.6094 43.291 29.0723 44.6973 28.3789C46.6699 27.3926 47.6562 26.1523 47.6562 25C47.6562 23.8477 46.6699 22.6074 44.6973 21.6211C43.2813 20.918 41.416 20.3809 39.3164 20.1367ZM34.3555 27.5684C33.4668 30.8301 30.9082 33.4082 27.666 34.3359C28.2812 35.1758 28.9941 36.0156 29.8047 36.8164C32.0215 39.0332 34.4727 40.5664 36.5625 41.2695C38.6523 41.9629 40.2246 41.7871 41.0352 40.9766C41.8555 40.166 42.0313 38.584 41.3281 36.4941C40.6348 34.4043 39.0918 31.9531 36.875 29.7363C36.0547 28.916 35.2148 28.1934 34.3555 27.5684ZM15.6445 27.6074C14.8047 28.2324 13.9746 28.9453 13.1641 29.7461C10.9473 31.9629 9.41113 34.4141 8.71387 36.5039C8.00977 38.5937 8.18945 40.166 9.00391 40.9863C9.81445 41.7969 11.3965 41.9824 13.4766 41.2695C15.5664 40.5762 18.0176 39.0332 20.2344 36.8164C21.0352 36.0156 21.748 35.1855 22.373 34.3457C19.1211 33.4277 16.5625 30.8594 15.6445 27.6074ZM24.2969 34.6777C23.5156 35.8301 22.5781 36.9727 21.4844 38.0664C21.0449 38.5059 20.5957 38.9258 20.1367 39.3164C20.3809 41.416 20.918 43.2813 21.6211 44.6973C22.6074 46.6699 23.8477 47.6562 25 47.6562C26.1523 47.6562 27.3926 46.6699 28.3789 44.6973C29.082 43.2715 29.6191 41.3965 29.8633 39.2773C29.4238 38.8965 28.9844 38.4863 28.5547 38.0566C27.4609 36.9629 26.5234 35.8301 25.752 34.6777C25.498 34.6973 25.2539 34.707 25 34.707C24.7656 34.707 24.5313 34.6973 24.2969 34.6777Z" fill="#DED4E8"/>
</svg>
