<svg width="50" height="50" viewBox="0 0 50 50" fill="none" xmlns="http://www.w3.org/2000/svg">
<path d="M33.9937 8.17297C36.7187 8.17297 39.0264 9.21742 40.9167 11.3063C42.8069 13.3952 43.7514 15.916 43.75 18.8688C43.75 19.5494 43.6951 20.2264 43.5854 20.9001C43.4757 21.5737 43.2944 22.2459 43.0417 22.9167H32.3437L28.8021 17.6042C28.6285 17.3264 28.3854 17.1008 28.0729 16.9271C27.7604 16.7535 27.4306 16.6667 27.0833 16.6667C26.6319 16.6667 26.2243 16.8056 25.8604 17.0834C25.4965 17.3612 25.2444 17.7084 25.1042 18.1251L22.2917 26.5626L20.4687 23.8542C20.2951 23.5764 20.0521 23.3508 19.7396 23.1771C19.4271 23.0035 19.0972 22.9167 18.75 22.9167H6.95833C6.70556 22.2737 6.52431 21.6146 6.41458 20.9396C6.30486 20.2646 6.25 19.5924 6.25 18.923C6.25 15.9327 7.18611 13.3938 9.05833 11.3063C10.9306 9.21881 13.2292 8.17436 15.9542 8.17297C17.3792 8.17297 18.75 8.46325 20.0667 9.04381C21.3819 9.62297 22.559 10.4626 23.5979 11.5626L25 13.0459L26.3229 11.6438C27.3799 10.516 28.5729 9.65561 29.9021 9.06256C31.2312 8.4695 32.5951 8.17297 33.9937 8.17297ZM25 41.7063C24.6694 41.7063 24.3375 41.6403 24.0042 41.5084C23.6708 41.3764 23.3861 41.1778 23.15 40.9126L9.99167 27.7042C9.89028 27.6028 9.79306 27.5014 9.7 27.4001C9.60694 27.2987 9.5125 27.1931 9.41667 27.0834H17.6042L21.1458 32.3959C21.3194 32.6737 21.5625 32.8994 21.875 33.073C22.1875 33.2466 22.5174 33.3334 22.8646 33.3334C23.316 33.3334 23.7326 33.1945 24.1146 32.9167C24.4965 32.6389 24.7569 32.2917 24.8958 31.8751L27.7083 23.4376L29.4792 26.1459C29.6875 26.4237 29.9479 26.6494 30.2604 26.823C30.5729 26.9966 30.9028 27.0834 31.25 27.0834H40.5687L40.2896 27.3876L40.0083 27.6917L26.8 40.9146C26.5347 41.1785 26.2514 41.3764 25.95 41.5084C25.6486 41.6403 25.3319 41.7063 25 41.7063Z" fill="#DED4E8"/>
</svg>
