<svg width="50" height="50" viewBox="0 0 50 50" fill="none" xmlns="http://www.w3.org/2000/svg">
<path opacity="0.5" d="M4.88734 23.4375C4.42565 22.1034 4.18224 20.7034 4.1665 19.2917C4.1665 6.97921 15.6248 1.38129 24.9998 11.4584C34.3748 1.38129 45.8332 6.97712 45.8332 19.2917C45.8174 20.7034 45.574 22.1034 45.1123 23.4375H38.5915C37.454 23.4375 36.4457 23.4334 35.5269 23.8438C34.6082 24.2521 33.9332 25.0042 33.1728 25.85L33.0165 26.025L30.8728 28.4063C30.8228 28.4622 30.7614 28.5067 30.6927 28.5367C30.624 28.5667 30.5496 28.5815 30.4746 28.5802C30.3996 28.5788 30.3259 28.5612 30.2583 28.5287C30.1907 28.4962 30.131 28.4494 30.0832 28.3917L22.6873 19.423C22.3957 19.0688 22.0853 18.6938 21.7811 18.4125C21.3477 17.9854 20.7773 17.7249 20.1707 17.6771C19.5624 17.6519 18.9648 17.8422 18.4832 18.2146C18.1498 18.4563 17.7957 18.7938 17.4623 19.1105L14.2748 22.1438C13.2936 23.0813 13.0873 23.2396 12.8748 23.325C12.6603 23.4125 12.3998 23.4375 11.0436 23.4375H4.88734Z" fill="#DED4E8"/>
<path d="M45.1127 23.4375H38.5919C37.4544 23.4354 36.446 23.4333 35.5252 23.8417C34.6085 24.2521 33.9335 25.0042 33.1731 25.85L33.0169 26.025L30.8731 28.4062C30.823 28.4624 30.7614 28.5071 30.6924 28.5371C30.6234 28.5671 30.5487 28.5819 30.4734 28.5803C30.3982 28.5787 30.3242 28.5609 30.2565 28.5279C30.1889 28.495 30.1291 28.4478 30.0814 28.3896L22.6856 19.4229C22.3939 19.0687 22.0814 18.6937 21.7794 18.4125C21.3462 17.9846 20.7759 17.7234 20.1689 17.675C19.5602 17.6509 18.9625 17.8428 18.4814 18.2167C18.146 18.4562 17.7919 18.7937 17.4606 19.1083L14.2731 22.1437C13.2919 23.0812 13.0856 23.2396 12.871 23.325C12.6564 23.4104 12.3981 23.4375 11.0419 23.4375H4.8877C7.04603 29.9062 13.6189 36.2375 18.6689 40.3542C21.446 42.6208 22.8335 43.75 25.0002 43.75C27.1669 43.75 28.5544 42.6187 31.3294 40.3542C36.3794 36.2375 42.9544 29.9062 45.1127 23.4375Z" fill="#DED4E8"/>
</svg>
