<svg width="50" height="50" viewBox="0 0 50 50" fill="none" xmlns="http://www.w3.org/2000/svg">
<path d="M18.7502 4.16663H10.4168V8.33329H6.25016V12.5H2.0835V25H6.25016V29.1666H10.4168V33.3333H14.5835V37.5H18.7502V41.6666H22.9168V45.8333H27.0835V41.6666H31.2502V37.5H35.4168V33.3333H39.5835V29.1666H43.7502V25H47.9168V12.5H43.7502V8.33329H39.5835V4.16663H31.2502V8.33329H27.0835V12.5H22.9168V8.33329H18.7502V4.16663ZM18.7502 8.33329V12.5H22.9168V16.6666H27.0835V12.5H31.2502V8.33329H39.5835V12.5H43.7502V25H39.5835V29.1666H35.4168V33.3333H31.2502V37.5H27.0835V41.6666H22.9168V37.5H18.7502V33.3333H14.5835V29.1666H10.4168V25H6.25016V12.5H10.4168V8.33329H18.7502Z" fill="#C7395F"/>
</svg>
