<svg width="50" height="50" viewBox="0 0 50 50" fill="none" xmlns="http://www.w3.org/2000/svg">
<path d="M31.0981 1.95801C27.6749 4.16699 24.1962 6.31104 21.8702 9.80029C22.0499 11.7683 22.4854 13.7435 23.0675 15.7354C23.7427 15.58 24.4335 15.5017 25.1264 15.5021C25.6143 15.5021 26.0934 15.5408 26.5609 15.6146L27.8377 9.97461L29.6178 10.3773L28.327 16.0791C29.3389 16.4579 30.2761 17.0123 31.0954 17.7166C32.3623 16.4098 33.7063 15.1238 35.1663 13.8838C34.9251 9.53682 33.3372 5.63906 31.0979 1.95801H31.0981ZM9.28779 8.09863C8.87816 8.10163 8.46852 8.1125 8.05889 8.13125C8.05635 12.1413 8.50947 16.1516 10.3636 20.1618L10.3909 20.1116C12.2887 21.1462 14.2127 21.9824 16.1706 22.6826C16.4846 21.2737 17.1237 19.9857 18.0046 18.9017L13.8723 14.8616L15.1479 13.5564L19.2893 17.6053C19.9021 17.0984 20.5781 16.673 21.3003 16.3398C20.7438 14.3843 20.3123 12.4146 20.0978 10.4212C16.4944 8.68975 12.8911 8.07354 9.2877 8.09863H9.28779ZM36.9913 14.7381C35.3194 16.1092 33.7981 17.5604 32.3676 19.0514C33.0252 19.8949 33.5301 20.847 33.8596 21.8646L39.5651 20.1585L40.0879 21.9068L34.2443 23.6542C34.3637 24.7128 34.2972 25.784 34.048 26.8197C36.0114 27.2025 38.0164 27.6176 40.0717 28.1105C43.4584 25.9866 46.0304 22.8155 47.9641 18.8237C44.3496 16.5003 40.759 14.9702 36.9914 14.738L36.9913 14.7381ZM25.1264 17.3271C24.3388 17.3268 23.5563 17.4526 22.8086 17.6998C23.0635 17.7996 23.318 17.9638 23.5611 18.2049C25.4237 20.0523 22.6365 22.7277 20.9004 20.8652C20.3633 20.2893 20.2356 19.6384 20.3695 19.0686C18.7821 20.4149 17.7763 22.4244 17.7763 24.677C17.7763 26.1102 18.1843 27.4443 18.8888 28.5729C19.0377 28.2804 19.2768 28.0371 19.5653 27.8904C19.0445 27.5604 18.6782 26.9779 18.7073 26.1482C18.7812 24.0418 21.1554 23.5225 22.2135 24.7088C22.3834 23.9566 23.006 23.3135 24.1023 23.3059C26.7254 23.2953 26.6465 27.1579 24.1019 27.0686C23.487 27.0471 23.0176 26.8161 22.694 26.4797C22.5762 27.4338 21.932 27.9873 21.1943 28.1555C21.2222 28.1803 21.25 28.2038 21.2775 28.2311C21.4362 28.3885 21.5496 28.5535 21.6283 28.7209C22.2828 28.2908 23.1922 28.2648 23.9818 29.0483C24.9844 30.0425 24.6393 31.2755 23.8368 31.913C24.2624 31.9885 24.6937 32.0268 25.1259 32.0272C26.0243 32.0272 26.8837 31.8669 27.6784 31.5741C27.3897 31.481 27.1055 31.3036 26.8449 31.0241C25.8456 29.9522 26.2623 28.6221 27.1502 28.0374C26.7859 26.4355 28.0934 24.8802 29.6377 24.9056C30.2422 24.9153 30.8825 25.1673 31.4731 25.7532C31.8105 26.088 32.035 26.4427 32.1653 26.8001C32.3716 26.1113 32.4763 25.3961 32.4761 24.677C32.4761 20.6069 29.1961 17.3271 25.1261 17.3271L25.1264 17.3271ZM27.8707 20.166C28.4615 20.1624 29.0499 20.5103 29.2705 21.3205C29.8133 23.3151 26.8576 24.0427 26.4066 22.0879C26.1389 20.9272 27.0072 20.1713 27.8705 20.166H27.8707ZM9.86875 21.9014C6.15879 24.4666 4.05117 27.8332 1.88574 31.1705C5.77539 33.3553 9.70703 35.3314 14.043 35.2865C15.7787 34.1199 17.3538 32.7922 18.844 31.3559C18.0706 30.6283 17.4284 29.7728 16.9456 28.8271L12.1985 30.2465L11.6757 28.4978L16.2821 27.1203C16.0619 26.3246 15.9504 25.5026 15.9509 24.677C15.9509 24.6336 15.9519 24.5904 15.9525 24.5471C13.9037 23.8301 11.8776 22.9707 9.86856 21.9013L9.86875 21.9014ZM33.4332 28.5689C33.1344 29.204 32.7636 29.8028 32.3283 30.3535L36.798 34.7232L35.5223 36.0283L31.0611 31.6668C30.4299 32.204 29.729 32.6536 28.9774 33.0032C29.537 35.202 29.9349 37.447 30.0553 39.7497C33.7528 41.5256 37.6993 42.0562 41.7908 41.863C41.9771 37.5868 41.4396 33.528 39.5718 29.8682C37.4891 29.3717 35.4454 28.9551 33.4333 28.5689H33.4332ZM20.3277 32.4931C18.6414 34.1215 16.8326 35.6376 14.801 36.9728C15.2869 40.6605 16.834 44.3482 18.7518 48.0362C22.3738 45.6155 25.7013 42.9593 28.2205 39.6562C28.0948 37.6202 27.7236 35.6098 27.2061 33.6142C26.2581 33.8347 25.281 33.9028 24.3116 33.8158L22.9688 39.7465L21.1891 39.3436L22.5179 33.4734C21.7479 33.2443 21.0115 32.9146 20.3276 32.493L20.3277 32.4931Z" fill="#DED4E8"/>
</svg>
