<svg width="50" height="50" viewBox="0 0 50 50" fill="none" xmlns="http://www.w3.org/2000/svg">
<path d="M17.239 1.90134C17.1873 1.90095 17.1357 1.90271 17.0835 1.90427C17.0278 1.90593 16.9717 1.90964 16.9157 1.91345C15.4222 2.01482 13.8243 2.88865 12.4936 5.01404C9.81033 9.29968 9.70799 14.5531 11.9229 18.3226C13.3969 20.8314 15.8699 22.7355 19.4303 23.3184C19.5152 22.6896 19.6952 22.0774 19.9642 21.5027C18.8505 20.2989 18.2054 18.94 17.9867 17.4928C17.5232 14.4283 18.8445 11.2115 20.8217 8.21248C21.6512 6.95427 21.7445 5.81794 21.4413 4.828C21.138 3.83777 20.3934 2.97986 19.4088 2.45984C18.7596 2.11707 18.0175 1.90574 17.2388 1.90125L17.239 1.90134ZM36.5812 4.80662C32.9611 4.8115 29.5654 6.2282 27.3498 8.64548C25.2709 10.9135 24.1628 14.0513 24.8716 17.9107C25.1417 17.875 25.4139 17.8566 25.6864 17.8558C25.9059 17.8558 26.1227 17.8674 26.3366 17.8894C27.1841 16.1433 28.4149 14.9223 29.9193 14.1998C32.7131 12.858 36.1769 13.1798 39.6239 14.1906C41.0698 14.6147 42.1843 14.3713 43.0419 13.7909C43.8995 13.2104 44.4997 12.245 44.7082 11.151C45.125 8.96287 44.1154 6.32683 40.2404 5.28855C39.0194 4.9614 37.788 4.80476 36.5812 4.80642V4.80662ZM25.5553 7.5988C24.7093 7.5988 23.8761 7.66648 23.065 7.79099C22.8928 8.2697 22.6563 8.74832 22.3478 9.21628C20.5007 12.018 19.4357 14.8719 19.7904 17.218C19.9366 18.1848 20.307 19.1048 20.9896 19.9585C21.5859 19.2956 22.3148 18.7653 23.1291 18.402C22.3156 14.0505 23.4751 10.2897 25.8361 7.60193C25.7422 7.60027 25.6494 7.599 25.5552 7.599L25.5553 7.5988ZM34.2711 15.1488C34.1715 15.1482 34.0731 15.1498 33.975 15.1517C32.7541 15.1761 31.6453 15.3952 30.7096 15.8446C29.6603 16.3485 28.7669 17.1334 28.1063 18.341C28.7973 18.6301 29.4317 19.0392 29.9802 19.5495C32.2626 18.2427 34.5991 17.6823 36.8253 17.7519C38.1368 17.7931 39.4095 18.0542 40.6095 18.5058C40.7257 18.5496 40.8395 18.5961 40.9542 18.6431C40.6588 17.7708 40.2893 16.9255 39.8495 16.1163C39.6004 16.0717 39.3539 16.0136 39.111 15.9425C37.4128 15.4444 35.7637 15.1573 34.2709 15.149L34.2711 15.1488ZM10.1012 18.8049C9.79368 19.7439 9.57303 20.7092 9.44197 21.6886C9.83422 21.9895 10.1924 22.3324 10.51 22.7111C12.6712 25.2785 15.1059 27.1086 17.4558 27.4352C18.332 27.5569 19.2234 27.4938 20.1353 27.1758C19.7906 26.5439 19.5573 25.8575 19.4456 25.1465C15.2305 24.5148 12.1248 22.271 10.3483 19.2474C10.2629 19.1017 10.1805 18.9542 10.1011 18.8051L10.1012 18.8049ZM36.1722 19.5433C36.0844 19.5449 35.9952 19.5485 35.9066 19.5525C34.3522 19.6219 32.7392 20.0652 31.1217 20.9623C31.4617 21.5371 31.7079 22.1625 31.851 22.8148C33.413 23.0685 34.7236 23.7103 35.7724 24.6703C38.0589 26.7626 39.0513 30.0973 39.3979 33.6728C39.5434 35.1728 40.1848 36.1146 41.0429 36.6941C41.9011 37.2736 43.0204 37.4701 44.1132 37.2556C46.2987 36.8269 48.369 34.9063 47.8881 30.9232C47.282 25.9034 44.0604 21.7515 39.9687 20.2116C38.7701 19.7604 37.4931 19.5192 36.1724 19.5431L36.1722 19.5433ZM25.6863 19.6806C23.1951 19.6806 21.1941 21.6816 21.1941 24.1728C21.1941 26.6643 23.1951 28.665 25.6863 28.665C28.1778 28.665 30.1756 26.6643 30.1756 24.1728C30.1756 21.6816 28.1778 19.6806 25.6863 19.6806ZM6.04539 22.3298C5.01004 22.3392 3.97664 22.8122 3.19812 23.6085C1.64109 25.2012 1.02547 27.9555 3.68035 30.9633C7.02625 34.7538 12.0345 36.3461 16.278 35.2936C18.9915 34.6208 21.4349 32.9067 23.0163 29.8921C22.3611 29.5839 21.7635 29.1659 21.2493 28.6561C19.8973 29.2473 18.5359 29.4299 17.2057 29.245C14.1359 28.8185 11.4258 26.6344 9.11248 23.8862C8.14207 22.7335 7.08074 22.3204 6.04539 22.3298ZM31.9793 24.6552C31.919 25.4438 31.7151 26.1943 31.3901 26.8769C34.448 29.6734 35.7753 33.1724 35.6229 36.6058C35.6229 36.6088 35.6232 36.6119 35.6229 36.615C36.3741 36.0212 37.0716 35.3625 37.7074 34.6466C37.6504 34.3827 37.6087 34.1158 37.5824 33.8471C37.2584 30.5068 36.2899 27.618 34.5396 26.0163C33.8394 25.3754 33.0043 24.8981 31.9793 24.6552ZM30.3769 28.3906C29.9262 28.8917 29.3988 29.3181 28.8144 29.6539C29.0488 31.203 28.8412 32.6355 28.2591 33.9203C26.9798 36.7435 24.1191 38.7244 20.828 40.1641C19.4476 40.7682 18.7536 41.668 18.4691 42.6636C18.1846 43.6594 18.3412 44.7857 18.8842 45.7582C19.9701 47.7027 22.4403 49.0756 26.0771 47.3817C30.6606 45.2469 33.6045 40.8946 33.7982 36.5265C33.9246 33.6769 32.931 30.7905 30.3773 28.3908L30.3769 28.3906ZM27.0965 30.3281C26.634 30.4352 26.161 30.4895 25.6863 30.4899C25.3719 30.4899 25.0642 30.4645 24.7618 30.4196C22.9387 34.0424 20.0011 36.2519 16.7174 37.0664C16.5587 37.1056 16.398 37.1431 16.2382 37.1762C17.2085 37.8555 18.2504 38.4265 19.345 38.8791C19.5883 38.7348 19.84 38.6053 20.0989 38.4914C23.1731 37.1465 25.6197 35.3304 26.5989 33.1691C26.9889 32.3088 27.1814 31.3717 27.0965 30.3281Z" fill="#DED4E8"/>
</svg>
