<svg width="50" height="50" viewBox="0 0 50 50" fill="none" xmlns="http://www.w3.org/2000/svg">
<path d="M29.7059 2.0293C23.2215 4.88818 28.9534 13.5635 23.1293 21.4722C23.1295 21.4731 23.1291 21.4741 23.1293 21.4751C23.5863 23.8087 23.2445 26.4091 21.6645 27.4719C22.2187 26.4125 22.1209 24.2277 21.6064 22.2016C16.8521 11.3818 9.66719 16.593 4.97754 4.79141C4.24434 16.0434 12.4916 15.2099 16.8335 26.1811C19.3022 26.6551 21.5474 28.3139 20.9747 31.0028C20.1212 28.2524 17.1972 27.3563 13.6842 28.079C8.89385 29.5106 5.91367 33.087 2.06016 31.8908C6.2499 36.4215 10.8268 31.9638 16.3453 33.3525C17.3414 32.7367 18.4707 32.3484 19.5069 32.367C20.1785 32.379 20.81 32.563 21.3409 32.9651C19.6354 32.7106 16.2379 34.9586 15.0483 37.0728C13.9706 40.1071 15.5918 44.1376 12.6984 48.6114C19.0028 47.6854 18.1655 41.5692 22.0766 38.3607C21.4955 36.0183 22.0145 33.0635 24.0206 32.2175C23.2065 33.2412 23.1517 35.8267 23.7123 37.9274C25.4414 42.6687 30.4928 42.2595 33.7129 48.8526C34.1152 44.0704 31.0004 40.7408 29.9865 37.1705C27.4943 35.9975 25.0613 33.4273 25.5035 31.1676C25.9998 32.7528 28.9225 34.9889 31.3902 35.8736C37.3409 37.4516 41.9859 33.7086 48.4863 38.1775C44.3443 30.8187 38.9436 33.8984 33.4961 30.4383C31.0257 31.0809 28.0557 30.827 26.9014 29.1108C27.909 29.638 29.9385 29.5791 31.8786 29.1291L31.8878 29.1262C41.5283 25.5137 40.9126 14.3023 48.291 13.4766C40.0602 10.002 38.1934 21.8597 30.426 23.4771C28.9303 25.9426 26.593 27.7096 23.9898 27.7862C25.1097 27.0294 27.0023 25.5096 28.3905 23.6513C28.3822 23.651 28.3742 23.6515 28.3661 23.6513C33.3336 17.2657 26.3206 10.5005 29.7057 2.02949L29.7059 2.0293ZM43.0359 6.88184C39.384 6.89971 35.5844 10.8193 35.6414 16.0064C38.3523 10.034 43.0797 8.93633 48.3367 11.0016C47.0884 8.09141 45.0845 6.87178 43.0359 6.88184ZM21.0174 6.93975C20.9654 6.93848 20.9119 6.94033 20.8588 6.94268C20.3723 6.96455 19.8356 7.13662 19.2535 7.49209C22.1998 9.45479 23.6575 13.0373 22.3449 18.3776C25.1822 14.1354 24.2944 7.01562 21.0175 6.93965L21.0174 6.93975ZM1.97754 14.6025V18.5576C5.79824 18.8843 9.4543 20.7163 12.7015 24.4414C11.4108 19.1734 6.67021 15.4837 1.97754 14.6025ZM14.4471 34.4177C8.50938 35.2251 8.54648 38.2538 2.80762 37.6068C7.64805 41.8272 10.2757 36.7955 14.4471 34.4177ZM41.1529 37.6343C38.9785 37.6538 36.087 38.2586 33.2733 38.4217C37.0692 40.2781 43.4862 37.9607 44.6196 41.3147C45.1583 38.3413 43.6172 37.6122 41.1528 37.6343H41.1529Z" fill="#DED4E8"/>
</svg>
