<svg width="24" height="31" viewBox="0 0 24 31" fill="none" xmlns="http://www.w3.org/2000/svg">
<g filter="url(#filter0_f_111_7)">
<path d="M12 14.925C11.2422 14.925 10.5155 14.6221 9.9797 14.0829C9.44388 13.5438 9.14286 12.8125 9.14286 12.05C9.14286 11.2875 9.44388 10.5562 9.9797 10.0171C10.5155 9.4779 11.2422 9.175 12 9.175C12.7578 9.175 13.4845 9.4779 14.0203 10.0171C14.5561 10.5562 14.8571 11.2875 14.8571 12.05C14.8571 12.4276 14.7832 12.8014 14.6397 13.1502C14.4961 13.499 14.2856 13.816 14.0203 14.0829C13.755 14.3499 13.44 14.5617 13.0934 14.7062C12.7467 14.8506 12.3752 14.925 12 14.925ZM12 4C9.87827 4 7.84344 4.84812 6.34315 6.35779C4.84285 7.86746 4 9.91501 4 12.05C4 18.0875 12 27 12 27C12 27 20 18.0875 20 12.05C20 9.91501 19.1571 7.86746 17.6569 6.35779C16.1566 4.84812 14.1217 4 12 4Z" fill="black" fill-opacity="0.3"/>
</g>
<defs>
<filter id="filter0_f_111_7" x="0" y="0" width="24" height="31" filterUnits="userSpaceOnUse" color-interpolation-filters="sRGB">
<feFlood flood-opacity="0" result="BackgroundImageFix"/>
<feBlend mode="normal" in="SourceGraphic" in2="BackgroundImageFix" result="shape"/>
<feGaussianBlur stdDeviation="2" result="effect1_foregroundBlur_111_7"/>
</filter>
</defs>
</svg>
